<svg id="Capa_1" data-name="Capa 1" xmlns="http://www.w3.org/2000/svg" xmlns:xlink="http://www.w3.org/1999/xlink" viewBox="0 0 671.43 188.47"><defs><style>.cls-1{fill:url(#Degradado_sin_nombre_4);}.cls-2{fill:url(#Degradado_sin_nombre_4-2);}.cls-3{fill:url(#Degradado_sin_nombre_4-3);}.cls-4{fill:url(#Degradado_sin_nombre_4-4);}.cls-5{fill:url(#Degradado_sin_nombre_4-5);}.cls-6{fill:url(#Degradado_sin_nombre_4-6);}.cls-7{fill:url(#Degradado_sin_nombre_4-7);}.cls-8{fill:url(#Degradado_sin_nombre_4-8);}.cls-9{fill:url(#Degradado_sin_nombre_4-9);}.cls-10{font-size:31.94px;fill:#fff;font-family:Suprema-Thin, Suprema;font-weight:200;letter-spacing:1em;}</style><linearGradient id="Degradado_sin_nombre_4" x1="595.39" y1="396.23" x2="533.13" y2="533.48" gradientUnits="userSpaceOnUse"><stop offset="0"/><stop offset="0.02" stop-color="#1a1a1a"/><stop offset="0.08" stop-color="#565656"/><stop offset="0.13" stop-color="#8a8a8a"/><stop offset="0.18" stop-color="#b4b4b4"/><stop offset="0.24" stop-color="#d5d5d5"/><stop offset="0.28" stop-color="#ececec"/><stop offset="0.33" stop-color="#fafafa"/><stop offset="0.37" stop-color="#fff"/></linearGradient><linearGradient id="Degradado_sin_nombre_4-2" x1="296.06" y1="406.99" x2="237.38" y2="536.35" xlink:href="#Degradado_sin_nombre_4"/><linearGradient id="Degradado_sin_nombre_4-3" x1="507.23" y1="414.71" x2="452.33" y2="535.74" xlink:href="#Degradado_sin_nombre_4"/><linearGradient id="Degradado_sin_nombre_4-4" x1="831.32" y1="414.76" x2="776.21" y2="536.25" xlink:href="#Degradado_sin_nombre_4"/><linearGradient id="Degradado_sin_nombre_4-5" x1="364.16" y1="412.64" x2="308.89" y2="534.48" xlink:href="#Degradado_sin_nombre_4"/><linearGradient id="Degradado_sin_nombre_4-6" x1="764.99" y1="419.63" x2="709.11" y2="542.83" xlink:href="#Degradado_sin_nombre_4"/><linearGradient id="Degradado_sin_nombre_4-7" x1="219.08" y1="406.39" x2="163.8" y2="528.26" xlink:href="#Degradado_sin_nombre_4"/><linearGradient id="Degradado_sin_nombre_4-8" x1="440.24" y1="408.58" x2="382.88" y2="535.02" xlink:href="#Degradado_sin_nombre_4"/><linearGradient id="Degradado_sin_nombre_4-9" x1="686.75" y1="408.56" x2="629.37" y2="535.04" xlink:href="#Degradado_sin_nombre_4"/></defs><title>logo</title><path class="cls-1" d="M570.59,456.25c-2.07,13.8-4.17,27.59-6.19,41.39-1.7,11.64-3.43,23.27-4.91,34.94-.41,3.26-1.83,4.27-4.91,4.14a97.21,97.21,0,0,0-12.19,0c-3.9.32-4.72-1.8-5.13-4.93-2-14.83-4-29.65-6-44.48-3.49-25.66-6.92-51.33-10.55-77-.4-2.89.19-3.7,3-3.8,11.48-.42,11.57-.5,13.1,10.58q6.35,46,12.57,91.94c0,.21.29.39.82,1.07,1.52-11.33,3-22.2,4.45-33.1q4.32-33.1,8.52-66.22c.42-3.39,1.91-4.34,5.22-4.24,13.06.41,10.34-1.78,12,10.77,4.09,30.24,7.9,60.52,11.83,90.79a9.78,9.78,0,0,0,.75,1.44c1.29-9.18,2.54-17.66,3.66-26.15q4.77-36.22,9.41-72.47c.42-3.28,1.88-4.57,5.22-4.41,9.13.42,9.47-2,7.94,8.94-5.12,36.6-10.06,73.22-15.1,109.83-1.56,11.35-1.6,11.34-13,11.34-8.72,0-8.43,0-9.61-8.82-3.19-23.86-6.65-47.68-10-71.51Z" transform="translate(-164.14 -406.29)"/><path class="cls-2" d="M283.89,494.05q0-40.37,0-80.73c0-2.12-1.07-5.22,1.36-6.12a17.65,17.65,0,0,1,11.13,0c1.88.57,1.24,2.91,1.24,4.52,0,15.84,0,31.68,0,47.52,0,24.25-.07,48.5.09,72.75,0,3.67-.94,4.92-4.7,4.78-13.5-.48-10.31,2.17-14.42-10.57-9.54-29.59-18.71-59.3-28-88.95a7.21,7.21,0,0,0-.82-1.23V446c0,28.45-.09,56.91.08,85.36,0,4.27-1.25,5.64-5.48,5.46-9.3-.39-8.52,1-8.52-8.73q0-57.6,0-115.22c0-6.2,0-6.2,6.37-6.2,12.82,0,12.89,0,16.9,12.4q11.47,35.57,22.8,71.18c.43,1.32.91,2.62,1.37,3.93Z" transform="translate(-164.14 -406.29)"/><path class="cls-3" d="M495,473.61c11.87,5.35,14.31,15.17,14.63,26,.2,7,0,14,0,21,0,4.49,0,9,1.68,13.26.74,1.94.29,2.9-2,2.82a60.37,60.37,0,0,0-8.4,0c-4,.41-5.58-1.61-6.13-5.16-1.5-9.77-.43-19.59-.75-29.38a64.78,64.78,0,0,0-.63-8.77c-1.15-7-5.26-9.87-13.17-11.4-2.84-.55-5.89,0-8.8-.26-4.16-.42-5.62,1-5.54,5.36.25,15,0,30,.18,45,0,3.77-1.11,4.72-4.77,4.65-10.83-.21-10.84,0-10.84-10.84q0-56.14,0-112.28c0-7,0-7.18,7.23-7,10.08.24,20.19-.91,30.22.72,12.18,2,18.43,7.84,20.58,20a83.82,83.82,0,0,1,0,28.44C507.24,463.77,503.22,469.83,495,473.61Zm-29-30.17c0,6.58.07,13.17,0,19.76-.05,2.82.94,4.17,3.89,4.06,3.5-.13,7,.09,10.51-.14,7.91-.54,12.36-4.21,13.23-12a84.24,84.24,0,0,0-.47-25.11,10.57,10.57,0,0,0-7.47-8.39c-5.73-1.89-11.68-.91-17.53-.94-2.21,0-2.11,1.84-2.11,3.4C466,430.54,466,437,466,443.44Z" transform="translate(-164.14 -406.29)"/><path class="cls-4" d="M819.28,473.68c10.49,4.87,14.24,13.25,14.35,23.71q.12,12.19,0,24.39A31.51,31.51,0,0,0,835.16,533c1.06,2.9,0,3.88-2.84,3.73-1.68-.09-3.37,0-5.05,0-6.85,0-7.69-.88-8.45-7.82-1.12-10.35-.36-20.73-.71-31.09-.19-5.85-1.61-11.15-7.41-14.08s-12.08-1.87-18.18-1.61c-2.54.11-1.9,2.74-1.9,4.44,0,14.72,0,29.44,0,44.16,0,6,0,6-6.15,6-10.28-.09-9.29,1.39-9.3-9.09q0-57.42,0-114.82c0-6.15,0-6.26,6-6.12,10.22.24,20.5-1,30.65.67,12.91,2.08,19.67,8.87,21.38,21.72a112.62,112.62,0,0,1,.11,24.76C832.46,462.67,827.87,469.25,819.28,473.68Zm-28.69-29.52h-.13c0,6.44.07,12.88-.05,19.31,0,2.38.52,3.77,3.19,3.72,3.91-.09,7.85.19,11.75-.12,7.42-.6,12.27-5.36,12.61-12.71a206.78,206.78,0,0,0,0-21c-.45-8.14-5.54-12.62-13.73-12.78-3.08-.06-6.17.14-9.24-.06-3.24-.21-4.53,1-4.43,4.31C790.72,431.28,790.59,437.72,790.59,444.16Z" transform="translate(-164.14 -406.29)"/><path class="cls-5" d="M311.47,471.54c0-19.9.1-39.81-.07-59.71,0-4.05,1.26-5.45,5.3-5.27,10.63.46,21.29-.54,31.92.57,15,1.57,21.66,13.54,23.14,24.93.92,7,.61,14,.63,21q.08,24.6,0,49.2a50.43,50.43,0,0,1-2.57,17c-4,11.07-12.31,16.59-23.56,17.27-10.34.63-20.74.11-31.11.25-3.51,0-3.71-2-3.7-4.62Q311.51,501.82,311.47,471.54Zm15.59.1c0,15.56.06,31.11-.06,46.67,0,3.25,1,4.63,4.34,4.39,2.93-.21,5.88,0,8.83-.05,10.81-.12,16.4-4.87,16.57-15.76q.56-35.31,0-70.63c-.17-10.83-5.87-15.62-16.61-15.68-2.81,0-5.63.21-8.41-.05-3.81-.36-4.76,1.28-4.72,4.86C327.14,440.8,327.05,456.22,327.06,471.64Z" transform="translate(-164.14 -406.29)"/><path class="cls-6" d="M729.19,406.61c10.65,0,10.83,0,12.84,10.37,6.22,32,12.27,64.07,18.4,96.11,1.21,6.33,2.56,12.63,3.78,18.95.85,4.38.26,5-4.07,4.78-.7,0-1.4-.11-2.09-.12-10-.19-7.9,1.48-10.28-8.47-1.18-4.9-2.11-9.86-2.93-14.83-.3-1.82-.79-2.8-2.8-2.79q-13.24.08-26.49,0c-2.15,0-2.84,1.19-3.19,3.09-1.18,6.34-2.62,12.62-3.66,19-.52,3.17-2.05,4.32-5.1,4-1.53-.15-3.08,0-4.63,0-5.47,0-5.61-.14-4.59-5.43,7.39-38.64,14.73-77.3,22.27-115.91C718.72,404.74,716.65,406.89,729.19,406.61Zm-.32,21.78-.9.13c-4.07,21.3-8,42.63-12.3,63.89-.8,4,.67,4.6,4,4.52,5.6-.13,11.21,0,16.82,0,5.83,0,5.82,0,4.64-5.94q-3.35-16.68-6.65-33.36C732.58,447.86,730.74,438.12,728.87,428.39Z" transform="translate(-164.14 -406.29)"/><path class="cls-7" d="M222.82,459.84q0,22.71,0,45.41a66.15,66.15,0,0,1-.89,10c-2.59,17.1-17.62,24.78-32.77,22.72-17-2.3-24.39-12.88-24.7-29.25-.62-32.5-.16-65-.25-97.53,0-3.45,1.18-4.72,4.65-4.64,12.19.31,10.7-1.71,10.73,10.71.06,29.28,0,58.56.05,87.84a37.4,37.4,0,0,0,.68,8.34c1.59,6.87,7.06,10.46,14.86,10.14a13.09,13.09,0,0,0,12.68-11.31,73.33,73.33,0,0,0,.89-10.87c.07-29.85,0-59.7,0-89.54,0-5.36,0-5.36,5.39-5.29,8.63.12,8.63.12,8.63,8.69Z" transform="translate(-164.14 -406.29)"/><path class="cls-8" d="M384.17,471.6c0-19.91.1-39.82-.09-59.73,0-4.23,1.19-5.46,5.49-5.37,14.58.29,29.17.24,43.75,0,4.14-.06,5.75,1.09,5.64,5.44-.25,10.21.17,8.46-8.68,8.58q-13,.18-26.08,0c-3.12-.05-4.19,1.15-4.17,4.2q.17,17.46,0,34.91c0,3.1,1.15,4.2,4.22,4.15,7.85-.14,15.71.05,23.56-.09,2.74,0,3.71.87,3.67,3.62-.19,11.9,1.19,10.23-9.84,10.35-5.75.06-11.5.1-17.25,0-2.94-.06-4.38.82-4.35,4q.15,18.51,0,37c0,3.25,1.45,4,4.38,4,9.95-.11,19.91.07,29.87-.1,3.5-.06,4.67,1.23,4.64,4.65-.1,11.18.46,9.34-9.06,9.41-13.75.09-27.49-.1-41.23.12-3.65.05-4.53-1.25-4.51-4.6C384.22,512,384.17,491.8,384.17,471.6Z" transform="translate(-164.14 -406.29)"/><path class="cls-9" d="M630.66,471.41c0-19.77.08-39.54-.07-59.3,0-4.11,1.12-5.65,5.48-5.58,14.71.24,29.43.19,44.15,0,3.89,0,5.14,1.29,5.13,5.08,0,9,.12,9-8.65,9s-17.38.09-26.07,0c-2.9,0-4,1-4,3.92.09,11.77.11,23.55,0,35.32,0,3.22,1.32,4.07,4.3,4,7.42-.15,14.86.07,22.28-.09,3.31-.07,4.86.82,4.79,4.45-.24,10.82,1,9.43-9.43,9.52-5.88.06-11.77.13-17.66,0-3-.08-4.3.91-4.27,4.07q.15,18.51,0,37c0,3.29,1.47,4,4.37,4,10-.11,19.9.07,29.85-.1,3-.05,4.15.89,4.37,4,.73,10.14.84,10.13-9.34,10.13q-19.35,0-38.69,0c-6.54,0-6.56,0-6.56-6.4Q630.65,500.84,630.66,471.41Z" transform="translate(-164.14 -406.29)"/><text class="cls-10" transform="translate(124.13 179.86)">SHOP MEN</text></svg>